<?xml version="1.0" encoding="iso-8859-1"?>
<!-- Generator: Adobe Illustrator 19.0.0, SVG Export Plug-In . SVG Version: 6.00 Build 0)  -->
<svg version="1.1" id="Layer_1" xmlns="http://www.w3.org/2000/svg" xmlns:xlink="http://www.w3.org/1999/xlink" x="0px" y="0px"
	 viewBox="0 0 512 512" style="enable-background:new 0 0 512 512;" xml:space="preserve">
<g transform="translate(1 1)">
	<path style="fill:#54C9FD;" d="M213.187,400.067c1.707,5.12,6.827,8.533,11.947,8.533H293.4c5.12,0,10.24-3.413,11.947-8.533H485.4
		V101.4c0-14.507-11.093-25.6-25.6-25.6H50.2c-14.507,0-25.6,11.093-25.6,25.6v298.667H213.187z"/>
	<path style="fill:#FFFFFF;" d="M50.2,75.8h17.067c-14.507,0-25.6,11.093-25.6,25.6v298.667H24.6V101.4
		C24.6,86.893,35.693,75.8,50.2,75.8"/>
	<path style="fill:#33A9F8;" d="M459.8,75.8h-17.067c14.507,0,25.6,11.093,25.6,25.6v298.667H485.4V101.4
		C485.4,86.893,474.307,75.8,459.8,75.8"/>
	<path style="fill:#54C9FD;" d="M305.347,400.067c-1.707,5.12-6.827,8.533-11.947,8.533h-68.267c-5.12,0-10.24-3.413-11.947-8.533
		H12.653c-2.56,0-5.12,2.56-5.12,5.12v23.893c0,2.56,2.56,5.12,5.12,5.12h484.693c2.56,0,5.12-2.56,5.12-5.12v-23.893
		c0-2.56-2.56-5.12-5.12-5.12L305.347,400.067L305.347,400.067z"/>
	<path style="fill:#FFFFFF;" d="M33.133,429.08v-23.893c0-2.56,2.56-5.12,5.12-5.12h-25.6c-2.56,0-5.12,2.56-5.12,5.12v23.893
		c0,2.56,2.56,5.12,5.12,5.12h25.6C35.693,434.2,33.133,431.64,33.133,429.08"/>
	<path style="fill:#33A9F8;" d="M476.867,429.08v-23.893c0-2.56-2.56-5.12-5.12-5.12h25.6c2.56,0,5.12,2.56,5.12,5.12v23.893
		c0,2.56-2.56,5.12-5.12,5.12h-25.6C474.307,434.2,476.867,431.64,476.867,429.08"/>
	<polygon style="fill:#FFDD09;" points="58.733,365.933 451.267,365.933 451.267,109.933 58.733,109.933 	"/>
	<polygon style="fill:#FD9808;" points="425.667,365.933 451.267,365.933 451.267,109.933 425.667,109.933 	"/>
	<path d="M497.347,442.733H12.653C4.973,442.733-1,436.76-1,429.08v-23.893c0-7.68,5.973-13.653,13.653-13.653H219.16l1.707,5.973
		c0.853,1.707,1.707,2.56,4.267,2.56H293.4c1.707,0,3.413-1.707,4.267-2.56l1.707-5.973h197.973c7.68,0,13.653,5.973,13.653,13.653
		v23.893C511,436.76,505.027,442.733,497.347,442.733z M16.067,425.667h477.867V408.6H310.467c-4.267,5.12-10.24,8.533-17.067,8.533
		h-68.267c-6.827,0-12.8-3.413-17.067-8.533h-192V425.667z"/>
	<path d="M293.4,417.133h-68.267c-6.827,0-12.8-3.413-17.067-8.533h-192V101.4c0-18.773,15.36-34.133,34.133-34.133h409.6
		c18.773,0,34.133,15.36,34.133,34.133v307.2H310.467C306.2,413.72,300.227,417.133,293.4,417.133z M33.133,391.533H219.16
		l1.707,5.973c0.853,1.707,1.707,2.56,4.267,2.56H293.4c1.707,0,3.413-1.707,4.267-2.56l1.707-5.973h177.493V101.4
		c0-9.387-7.68-17.067-17.067-17.067H50.2c-9.387,0-17.067,7.68-17.067,17.067V391.533z"/>
	<path d="M451.267,374.467H58.733c-5.12,0-8.533-3.413-8.533-8.533v-256c0-5.12,3.413-8.533,8.533-8.533h392.533
		c5.12,0,8.533,3.413,8.533,8.533v256C459.8,371.053,456.387,374.467,451.267,374.467z M67.267,357.4h375.467V118.467H67.267V357.4z
		"/>
	<path d="M229.4,280.6c-5.12,0-8.533-3.413-8.533-8.533V203.8c0-5.12,3.413-8.533,8.533-8.533c5.12,0,8.533,3.413,8.533,8.533
		v68.267C237.933,277.187,234.52,280.6,229.4,280.6z"/>
	<path d="M280.6,280.6c-5.12,0-8.533-3.413-8.533-8.533V203.8c0-5.12,3.413-8.533,8.533-8.533s8.533,3.413,8.533,8.533v68.267
		C289.133,277.187,285.72,280.6,280.6,280.6z"/>
	<path d="M280.6,246.467h-51.2c-5.12,0-8.533-3.413-8.533-8.533c0-5.12,3.413-8.533,8.533-8.533h51.2
		c5.12,0,8.533,3.413,8.533,8.533C289.133,243.053,285.72,246.467,280.6,246.467z"/>
	<path d="M152.6,280.6c-5.12,0-8.533-3.413-8.533-8.533V203.8c0-5.12,3.413-8.533,8.533-8.533h18.773
		c15.36,0,27.307,12.8,27.307,27.307c0,14.507-12.8,27.307-27.307,27.307h-10.24v22.187C161.133,277.187,157.72,280.6,152.6,280.6z
		 M161.133,233.667h10.24c5.973,0,10.24-5.12,10.24-10.24c0-5.12-4.267-11.093-10.24-11.093h-10.24V233.667z"/>
	<path d="M323.267,280.6c-5.12,0-8.533-3.413-8.533-8.533V203.8c0-5.12,3.413-8.533,8.533-8.533h18.773
		c15.36,0,27.307,12.8,27.307,27.307c0,14.507-12.8,27.307-27.307,27.307H331.8v22.187C331.8,277.187,328.387,280.6,323.267,280.6z
		 M331.8,233.667h10.24c5.973,0,10.24-5.12,10.24-10.24c0-5.12-4.267-11.093-10.24-11.093H331.8V233.667z"/>
</g>
<g>
</g>
<g>
</g>
<g>
</g>
<g>
</g>
<g>
</g>
<g>
</g>
<g>
</g>
<g>
</g>
<g>
</g>
<g>
</g>
<g>
</g>
<g>
</g>
<g>
</g>
<g>
</g>
<g>
</g>
</svg>
