<?xml version="1.0" encoding="iso-8859-1"?>
<!-- Generator: Adobe Illustrator 19.0.0, SVG Export Plug-In . SVG Version: 6.00 Build 0)  -->
<svg version="1.1" id="Layer_1" xmlns="http://www.w3.org/2000/svg" xmlns:xlink="http://www.w3.org/1999/xlink" x="0px" y="0px"
	 viewBox="0 0 512 512" style="enable-background:new 0 0 512 512;" xml:space="preserve">
<path style="fill:#FF877F;" d="M125.764,115.2l12.621-19.703C172.535,42.163,214.306,12.8,256,12.8
	c41.694,0,83.465,29.363,117.615,82.697l12.621,19.703H125.764z"/>
<path style="fill:#FEDEA1;" d="M256,499.2c-40.926,0-76.015-9.293-104.329-27.614l-0.188,2.398l-9.933-9.097L128,455.919
	l2.799-0.887c-11.844-11.162-21.905-24.405-29.926-39.39L90.803,396.8h330.402l-10.078,18.842
	c-8.073,15.078-18.202,28.39-30.14,39.595l2.79,0.887l-13.406,8.849l-10.078,9.216l-0.188-2.449
	C331.827,489.958,296.815,499.2,256,499.2z"/>
<path style="fill:#A0BF7C;" d="M76.8,320v-12.8c0-26.206,3.277-54.229,9.728-83.302l7.825-35.2L160,320H76.8z"/>
<path style="fill:#FEDEA1;" d="M94.49,192l5.931-17.015c6.426-18.415,14.071-36.207,22.716-52.873l3.584-6.912h258.551l3.584,6.912
	c8.644,16.666,16.29,34.458,22.716,52.873L417.502,192H94.49z"/>
<path style="fill:#FF877F;" d="M91.827,396.8l-2.935-8.713c-5.436-16.145-9.071-34.364-10.812-54.161L76.851,320h358.298
	l-1.229,13.926c-1.741,19.78-5.376,38.007-10.812,54.161l-2.927,8.713H91.827z"/>
<polygon style="fill:#6FB0B6;" points="96,192 211.2,192 153.6,307.2 "/>
<path style="fill:#A0BF7C;" d="M352,320l65.647-131.302l7.825,35.2c6.451,29.073,9.728,57.097,9.728,83.302V320H352z"/>
<g>
	<polygon style="fill:#6FB0B6;" points="300.8,192 416,192 358.4,307.2 	"/>
	<polygon style="fill:#6FB0B6;" points="198.4,192 313.6,192 256,307.2 	"/>
</g>
<g>
	<polygon style="fill:#A0BF7C;" points="249.6,320 307.2,204.8 364.8,320 	"/>
	<polygon style="fill:#A0BF7C;" points="147.2,320 204.8,204.8 262.4,320 	"/>
</g>
<g>
	<path style="fill:#573A32;" d="M256,0C149.965,0,64,165.811,64,307.2C64,448.58,149.965,512,256,512s192-63.42,192-204.8
		C448,165.811,362.035,0,256,0z M422.4,307.2h-49.69l40.26-80.521C418.97,253.653,422.4,281.011,422.4,307.2z M204.8,233.421
		l36.89,73.779H167.91L204.8,233.421z M153.6,278.579L116.71,204.8h73.779L153.6,278.579z M219.11,204.8h73.779L256,278.579
		L219.11,204.8z M307.2,233.421l36.89,73.779H270.31L307.2,233.421z M321.51,204.8h73.779l-36.89,73.779L321.51,204.8z M256,25.6
		c40.124,0,77.602,31.147,106.837,76.8H149.163C178.398,56.747,215.876,25.6,256,25.6z M134.502,128h242.987
		c8.346,16.077,15.736,33.263,21.99,51.2H112.503C118.767,161.263,126.157,144.077,134.502,128z M99.021,226.679L139.29,307.2H89.6
		C89.6,281.011,93.03,253.653,99.021,226.679z M371.004,447.027c-0.521-6.588-5.879-11.827-12.604-11.827
		c-7.066,0-12.8,5.726-12.8,12.8c0,5.726,3.823,10.394,9.003,12.032C328.525,477.303,295.407,486.4,256,486.4
		s-72.525-9.097-98.603-26.368c5.18-1.638,9.003-6.315,9.003-12.032c0-7.074-5.734-12.8-12.8-12.8
		c-6.724,0-12.083,5.239-12.604,11.827c-11.477-10.496-21.111-23.006-28.834-37.427h287.676
		C392.124,424.021,382.481,436.531,371.004,447.027z M410.982,384H101.018c-5.197-15.454-8.559-32.597-10.197-51.2h330.351
		C419.541,351.403,416.179,368.546,410.982,384z"/>
	<circle style="fill:#573A32;" cx="204.8" cy="64" r="12.8"/>
	<circle style="fill:#573A32;" cx="256" cy="64" r="12.8"/>
	<circle style="fill:#573A32;" cx="307.2" cy="64" r="12.8"/>
	<circle style="fill:#573A32;" cx="204.8" cy="448" r="12.8"/>
	<circle style="fill:#573A32;" cx="256" cy="448" r="12.8"/>
	<circle style="fill:#573A32;" cx="307.2" cy="448" r="12.8"/>
</g>
<g>
</g>
<g>
</g>
<g>
</g>
<g>
</g>
<g>
</g>
<g>
</g>
<g>
</g>
<g>
</g>
<g>
</g>
<g>
</g>
<g>
</g>
<g>
</g>
<g>
</g>
<g>
</g>
<g>
</g>
</svg>
